<svg xmlns="http://www.w3.org/2000/svg" xmlns:xlink="http://www.w3.org/1999/xlink" width="500" zoomAndPan="magnify" viewBox="0 0 375 374.999991" height="500" preserveAspectRatio="xMidYMid meet" version="1.0"><defs><g/><clipPath id="4147230bbd"><path d="M 125.117188 74 L 168 74 L 168 138 L 125.117188 138 Z M 125.117188 74 " clip-rule="nonzero"/></clipPath><clipPath id="1dc6fe81d3"><path d="M 204 74 L 246.617188 74 L 246.617188 138 L 204 138 Z M 204 74 " clip-rule="nonzero"/></clipPath><clipPath id="22dd890b6a"><path d="M 164 58.769531 L 207 58.769531 L 207 153.269531 L 164 153.269531 Z M 164 58.769531 " clip-rule="nonzero"/></clipPath></defs><rect x="-37.5" width="450" fill="#ffffff" y="-37.499999" height="449.999989" fill-opacity="1"/><rect x="-37.5" width="450" fill="#000000" y="-37.499999" height="449.999989" fill-opacity="1"/><path fill="#01ff09" d="M 163.480469 135.734375 C 162.808594 135.734375 162.144531 135.507812 161.617188 135.085938 L 127.613281 108.332031 C 126.882812 107.757812 126.460938 106.898438 126.460938 105.96875 C 126.460938 105.039062 126.882812 104.179688 127.609375 103.597656 L 161.617188 76.851562 C 162.144531 76.429688 162.808594 76.203125 163.480469 76.203125 C 164.40625 76.203125 165.273438 76.617188 165.84375 77.351562 C 166.34375 77.984375 166.566406 78.773438 166.46875 79.570312 C 166.378906 80.371094 165.972656 81.082031 165.339844 81.578125 L 134.351562 105.96875 L 165.339844 130.351562 C 165.972656 130.855469 166.378906 131.566406 166.46875 132.363281 C 166.566406 133.164062 166.34375 133.949219 165.84375 134.585938 C 165.273438 135.3125 164.40625 135.734375 163.480469 135.734375 " fill-opacity="1" fill-rule="nonzero"/><g clip-path="url(#4147230bbd)"><path fill="#01ff09" d="M 163.480469 74.921875 C 162.519531 74.921875 161.582031 75.246094 160.828125 75.839844 L 126.820312 102.59375 C 125.773438 103.417969 125.179688 104.644531 125.179688 105.96875 C 125.179688 107.292969 125.78125 108.523438 126.820312 109.34375 L 160.828125 136.097656 C 161.574219 136.6875 162.519531 137.015625 163.480469 137.015625 C 164.808594 137.015625 166.039062 136.414062 166.855469 135.375 C 167.566406 134.476562 167.882812 133.351562 167.746094 132.214844 C 167.609375 131.074219 167.039062 130.054688 166.136719 129.347656 L 136.421875 105.96875 L 166.136719 82.589844 C 167.039062 81.878906 167.609375 80.863281 167.746094 79.722656 C 167.882812 78.582031 167.566406 77.460938 166.855469 76.558594 C 166.039062 75.515625 164.804688 74.921875 163.480469 74.921875 Z M 163.480469 77.484375 C 163.992188 77.484375 164.5 77.710938 164.839844 78.144531 C 165.433594 78.898438 165.300781 79.984375 164.550781 80.574219 L 132.273438 105.96875 L 164.550781 131.363281 C 165.300781 131.953125 165.433594 133.039062 164.839844 133.789062 C 164.5 134.226562 163.992188 134.449219 163.480469 134.449219 C 163.105469 134.449219 162.730469 134.332031 162.414062 134.082031 L 128.40625 107.328125 C 127.988281 107 127.746094 106.496094 127.746094 105.96875 C 127.746094 105.433594 127.988281 104.9375 128.40625 104.609375 L 162.414062 77.855469 C 162.726562 77.605469 163.105469 77.484375 163.480469 77.484375 " fill-opacity="1" fill-rule="nonzero"/></g><path fill="#01ff09" d="M 208.347656 135.734375 C 207.417969 135.734375 206.558594 135.3125 205.976562 134.585938 C 204.953125 133.28125 205.175781 131.382812 206.484375 130.351562 L 237.480469 105.96875 L 206.484375 81.578125 C 205.175781 80.554688 204.953125 78.65625 205.976562 77.351562 C 206.558594 76.617188 207.417969 76.203125 208.347656 76.203125 C 209.019531 76.203125 209.679688 76.429688 210.210938 76.851562 L 244.21875 103.597656 C 244.945312 104.179688 245.363281 105.039062 245.363281 105.96875 C 245.363281 106.898438 244.945312 107.757812 244.210938 108.332031 L 210.210938 135.085938 C 209.679688 135.507812 209.019531 135.734375 208.347656 135.734375 " fill-opacity="1" fill-rule="nonzero"/><g clip-path="url(#1dc6fe81d3)"><path fill="#01ff09" d="M 208.347656 74.921875 C 207.023438 74.921875 205.792969 75.515625 204.972656 76.558594 C 203.503906 78.417969 203.828125 81.125 205.691406 82.589844 L 235.402344 105.96875 L 205.691406 129.347656 C 203.828125 130.808594 203.503906 133.515625 204.972656 135.375 C 205.792969 136.414062 207.023438 137.015625 208.347656 137.015625 C 209.308594 137.015625 210.246094 136.6875 211 136.097656 L 245.007812 109.34375 C 246.050781 108.523438 246.644531 107.292969 246.644531 105.96875 C 246.644531 104.644531 246.050781 103.417969 245.011719 102.59375 L 211.003906 75.839844 C 210.25 75.246094 209.308594 74.921875 208.347656 74.921875 Z M 208.347656 77.484375 C 208.722656 77.484375 209.101562 77.605469 209.414062 77.855469 L 243.421875 104.609375 C 243.835938 104.9375 244.078125 105.433594 244.078125 105.96875 C 244.078125 106.496094 243.835938 107 243.421875 107.328125 L 209.414062 134.082031 C 209.101562 134.332031 208.722656 134.449219 208.347656 134.449219 C 207.835938 134.449219 207.328125 134.226562 206.988281 133.789062 C 206.398438 133.039062 206.527344 131.953125 207.273438 131.363281 L 239.554688 105.96875 L 207.273438 80.574219 C 206.527344 79.984375 206.398438 78.898438 206.988281 78.144531 C 207.328125 77.710938 207.839844 77.484375 208.347656 77.484375 " fill-opacity="1" fill-rule="nonzero"/></g><path fill="#01ff09" d="M 169.015625 151.878906 C 168.640625 151.878906 168.277344 151.804688 167.925781 151.671875 C 167.179688 151.378906 166.582031 150.816406 166.261719 150.082031 C 165.929688 149.34375 165.917969 148.527344 166.203125 147.777344 L 199.414062 61.984375 C 199.863281 60.832031 200.992188 60.058594 202.222656 60.058594 C 202.597656 60.058594 202.964844 60.128906 203.316406 60.265625 C 204.859375 60.863281 205.632812 62.613281 205.035156 64.164062 L 171.824219 149.953125 C 171.378906 151.101562 170.246094 151.878906 169.015625 151.878906 " fill-opacity="1" fill-rule="nonzero"/><g clip-path="url(#22dd890b6a)"><path fill="#01ff09" d="M 202.222656 58.777344 C 200.460938 58.777344 198.851562 59.882812 198.21875 61.519531 L 165.007812 147.3125 C 164.597656 148.382812 164.625 149.550781 165.085938 150.601562 C 165.550781 151.648438 166.394531 152.457031 167.464844 152.867188 C 167.964844 153.0625 168.480469 153.160156 169.015625 153.160156 C 170.773438 153.160156 172.386719 152.058594 173.019531 150.417969 L 206.230469 64.625 C 207.085938 62.414062 205.984375 59.921875 203.769531 59.070312 C 203.277344 58.875 202.753906 58.777344 202.222656 58.777344 Z M 202.222656 61.339844 C 202.433594 61.339844 202.644531 61.382812 202.847656 61.460938 C 203.742188 61.804688 204.183594 62.804688 203.839844 63.695312 L 170.625 149.488281 C 170.363281 150.175781 169.707031 150.59375 169.015625 150.59375 C 168.804688 150.59375 168.59375 150.558594 168.390625 150.476562 C 167.496094 150.132812 167.054688 149.128906 167.402344 148.242188 L 200.609375 62.449219 C 200.878906 61.761719 201.53125 61.339844 202.222656 61.339844 " fill-opacity="1" fill-rule="nonzero"/></g><g fill="#ffffff" fill-opacity="1"><g transform="translate(7.800865, 244.945414)"><g><path d="M 31.4375 -12.8125 L 48.234375 -67.4375 L 62.203125 -67.4375 L 40.90625 0 L 21.953125 0 L 0.828125 -67.4375 L 14.890625 -67.4375 Z M 31.4375 -12.8125 "/></g></g></g><g fill="#ffffff" fill-opacity="1"><g transform="translate(67.658077, 244.945414)"><g><path d="M 17.625 0 L 4.484375 0 L 4.484375 -67.4375 L 17.625 -67.4375 Z M 17.625 0 "/></g></g></g><g fill="#ffffff" fill-opacity="1"><g transform="translate(86.612345, 244.945414)"><g><path d="M 46.484375 -14.796875 L 46.484375 -67.4375 L 59.453125 -67.4375 L 59.453125 0 L 41.75 0 L 17.546875 -52.796875 L 17.546875 0 L 4.578125 0 L 4.578125 -67.4375 L 22.28125 -67.4375 Z M 46.484375 -14.796875 "/></g></g></g><g fill="#ffffff" fill-opacity="1"><g transform="translate(147.467196, 244.945414)"><g><path d="M 14.96875 -72.34375 L 5.65625 -72.34375 L 12.3125 -84.90625 L 28.6875 -84.90625 Z M 17.625 0 L 4.484375 0 L 4.484375 -67.4375 L 17.625 -67.4375 Z M 17.625 0 "/></g></g></g><g fill="#ffffff" fill-opacity="1"><g transform="translate(166.421464, 244.945414)"><g><path d="M 38.828125 1.078125 C 31.847656 1.078125 25.695312 -0.375 20.375 -3.28125 C 15.050781 -6.195312 10.890625 -10.257812 7.890625 -15.46875 C 4.898438 -20.675781 3.40625 -26.71875 3.40625 -33.59375 L 3.40625 -33.765625 C 3.40625 -40.691406 4.890625 -46.757812 7.859375 -51.96875 C 10.828125 -57.1875 14.96875 -61.265625 20.28125 -64.203125 C 25.601562 -67.140625 31.785156 -68.609375 38.828125 -68.609375 C 43.265625 -68.609375 47.296875 -68.023438 50.921875 -66.859375 C 54.554688 -65.691406 57.898438 -64.140625 60.953125 -62.203125 L 55.875 -51.46875 C 53 -53.25 50.144531 -54.507812 47.3125 -55.25 C 44.488281 -56 41.660156 -56.375 38.828125 -56.375 C 34.785156 -56.375 31.085938 -55.472656 27.734375 -53.671875 C 24.378906 -51.867188 21.703125 -49.273438 19.703125 -45.890625 C 17.710938 -42.515625 16.71875 -38.472656 16.71875 -33.765625 L 16.71875 -33.59375 C 16.71875 -29.101562 17.703125 -25.164062 19.671875 -21.78125 C 21.640625 -18.40625 24.300781 -15.785156 27.65625 -13.921875 C 31.007812 -12.066406 34.734375 -11.140625 38.828125 -11.140625 C 41.660156 -11.140625 44.488281 -11.515625 47.3125 -12.265625 C 50.144531 -13.015625 53 -14.25 55.875 -15.96875 L 60.953125 -5.234375 C 57.960938 -3.347656 54.675781 -1.820312 51.09375 -0.65625 C 47.519531 0.5 43.429688 1.078125 38.828125 1.078125 Z M 38.828125 1.078125 "/></g></g></g><g fill="#ffffff" fill-opacity="1"><g transform="translate(227.608863, 244.945414)"><g><path d="M 17.625 0 L 4.484375 0 L 4.484375 -67.4375 L 17.625 -67.4375 Z M 17.625 0 "/></g></g></g><g fill="#ffffff" fill-opacity="1"><g transform="translate(246.56312, 244.945414)"><g><path d="M 32.9375 1.078125 C 26.164062 1.078125 20.6875 -0.03125 16.5 -2.25 C 12.320312 -4.46875 9.273438 -7.613281 7.359375 -11.6875 C 5.441406 -15.757812 4.484375 -20.625 4.484375 -26.28125 L 4.484375 -67.4375 L 17.625 -67.4375 L 17.625 -29.609375 C 17.625 -23.453125 18.71875 -18.914062 20.90625 -16 C 23.101562 -13.09375 27.113281 -11.640625 32.9375 -11.640625 C 38.695312 -11.640625 42.6875 -13.09375 44.90625 -16 C 47.125 -18.914062 48.234375 -23.453125 48.234375 -29.609375 L 48.234375 -67.4375 L 61.28125 -67.4375 L 61.28125 -26.28125 C 61.28125 -20.625 60.320312 -15.757812 58.40625 -11.6875 C 56.5 -7.613281 53.46875 -4.46875 49.3125 -2.25 C 45.15625 -0.03125 39.695312 1.078125 32.9375 1.078125 Z M 32.9375 1.078125 "/></g></g></g><g fill="#ffffff" fill-opacity="1"><g transform="translate(309.246954, 244.945414)"><g><path d="M 27.9375 1.078125 C 23.113281 1.078125 18.507812 0.539062 14.125 -0.53125 C 9.75 -1.613281 6.066406 -3.15625 3.078125 -5.15625 L 8.0625 -15.96875 C 10.5625 -14.300781 13.5 -12.992188 16.875 -12.046875 C 20.257812 -11.109375 23.78125 -10.640625 27.4375 -10.640625 C 31.539062 -10.640625 34.828125 -11.347656 37.296875 -12.765625 C 39.765625 -14.179688 41 -16.160156 41 -18.703125 L 41 -18.796875 C 41 -20.285156 40.5 -21.539062 39.5 -22.5625 C 38.5 -23.59375 36.847656 -24.59375 34.546875 -25.5625 C 32.242188 -26.539062 29.070312 -27.640625 25.03125 -28.859375 C 20.15625 -30.347656 16.257812 -31.976562 13.34375 -33.75 C 10.4375 -35.53125 8.359375 -37.695312 7.109375 -40.25 C 5.859375 -42.800781 5.234375 -45.929688 5.234375 -49.640625 L 5.234375 -49.8125 C 5.234375 -53.582031 6.203125 -56.863281 8.140625 -59.65625 C 10.085938 -62.457031 12.890625 -64.648438 16.546875 -66.234375 C 20.203125 -67.816406 24.582031 -68.609375 29.6875 -68.609375 C 34.0625 -68.609375 38.300781 -68.09375 42.40625 -67.0625 C 46.507812 -66.039062 50.003906 -64.585938 52.890625 -62.703125 L 47.890625 -51.8125 C 45.453125 -53.414062 42.640625 -54.675781 39.453125 -55.59375 C 36.265625 -56.507812 33.035156 -56.96875 29.765625 -56.96875 C 25.890625 -56.96875 23.019531 -56.300781 21.15625 -54.96875 C 19.300781 -53.632812 18.375 -52 18.375 -50.0625 L 18.375 -49.984375 C 18.375 -47.648438 19.34375 -45.832031 21.28125 -44.53125 C 23.226562 -43.226562 26.472656 -41.851562 31.015625 -40.40625 C 36.722656 -38.632812 41.269531 -36.832031 44.65625 -35 C 48.039062 -33.175781 50.476562 -31.015625 51.96875 -28.515625 C 53.46875 -26.023438 54.21875 -22.867188 54.21875 -19.046875 L 54.21875 -18.875 C 54.21875 -12.550781 51.859375 -7.644531 47.140625 -4.15625 C 42.429688 -0.664062 36.03125 1.078125 27.9375 1.078125 Z M 27.9375 1.078125 "/></g></g></g><g fill="#01ff09" fill-opacity="1"><g transform="translate(39.934779, 303.529684)"><g><path d="M 13.859375 0.625 C 11.335938 0.625 9.15625 0.109375 7.3125 -0.921875 C 5.476562 -1.953125 4.0625 -3.351562 3.0625 -5.125 C 2.070312 -6.90625 1.578125 -8.929688 1.578125 -11.203125 L 1.578125 -11.28125 C 1.578125 -13.539062 2.050781 -15.554688 3 -17.328125 C 3.957031 -19.109375 5.335938 -20.507812 7.140625 -21.53125 C 8.941406 -22.550781 11.109375 -23.0625 13.640625 -23.0625 C 14.359375 -23.0625 15.070312 -23.003906 15.78125 -22.890625 C 16.488281 -22.773438 17.175781 -22.640625 17.84375 -22.484375 L 17.84375 -31.328125 L 23.953125 -31.328125 L 23.953125 -1.546875 C 22.378906 -0.773438 20.816406 -0.222656 19.265625 0.109375 C 17.722656 0.453125 15.921875 0.625 13.859375 0.625 Z M 13.859375 -4.859375 C 14.609375 -4.859375 15.3125 -4.90625 15.96875 -5 C 16.625 -5.09375 17.25 -5.21875 17.84375 -5.375 L 17.84375 -17 C 17.25 -17.125 16.601562 -17.25 15.90625 -17.375 C 15.21875 -17.507812 14.535156 -17.578125 13.859375 -17.578125 C 11.859375 -17.578125 10.332031 -16.96875 9.28125 -15.75 C 8.238281 -14.539062 7.71875 -13.050781 7.71875 -11.28125 L 7.71875 -11.203125 C 7.71875 -9.421875 8.238281 -7.914062 9.28125 -6.6875 C 10.332031 -5.46875 11.859375 -4.859375 13.859375 -4.859375 Z M 13.859375 -4.859375 "/></g></g></g><g fill="#01ff09" fill-opacity="1"><g transform="translate(64.524876, 303.529684)"><g><path d="M 24.53125 -10.34375 L 24.53125 -9.8125 L 7.921875 -9.8125 C 8.222656 -8.394531 8.910156 -7.203125 9.984375 -6.234375 C 11.054688 -5.273438 12.425781 -4.796875 14.09375 -4.796875 C 15.457031 -4.796875 16.710938 -5.003906 17.859375 -5.421875 C 19.003906 -5.847656 19.976562 -6.34375 20.78125 -6.90625 L 23.453125 -2.15625 C 22.335938 -1.46875 20.992188 -0.835938 19.421875 -0.265625 C 17.859375 0.296875 15.992188 0.578125 13.828125 0.578125 C 11.359375 0.578125 9.203125 0.0820312 7.359375 -0.90625 C 5.515625 -1.894531 4.082031 -3.273438 3.0625 -5.046875 C 2.050781 -6.828125 1.546875 -8.890625 1.546875 -11.234375 L 1.546875 -11.28125 C 1.546875 -13.59375 2.019531 -15.628906 2.96875 -17.390625 C 3.925781 -19.160156 5.265625 -20.546875 6.984375 -21.546875 C 8.710938 -22.554688 10.75 -23.0625 13.09375 -23.0625 C 15.457031 -23.0625 17.492188 -22.550781 19.203125 -21.53125 C 20.921875 -20.507812 22.238281 -19.050781 23.15625 -17.15625 C 24.070312 -15.269531 24.53125 -13 24.53125 -10.34375 Z M 13.0625 -18.078125 C 11.71875 -18.078125 10.597656 -17.648438 9.703125 -16.796875 C 8.816406 -15.953125 8.234375 -14.882812 7.953125 -13.59375 L 18.265625 -13.59375 C 18.035156 -14.882812 17.484375 -15.953125 16.609375 -16.796875 C 15.734375 -17.648438 14.550781 -18.078125 13.0625 -18.078125 Z M 13.0625 -18.078125 "/></g></g></g><g fill="#01ff09" fill-opacity="1"><g transform="translate(89.153569, 303.529684)"><g><path d="M 11.3125 0.5 C 7.9375 0.5 4.691406 -0.140625 1.578125 -1.421875 L 3.25 -5.875 C 4.53125 -5.300781 5.828125 -4.882812 7.140625 -4.625 C 8.453125 -4.375 9.664062 -4.25 10.78125 -4.25 C 12.09375 -4.25 13.148438 -4.375 13.953125 -4.625 C 14.765625 -4.882812 15.171875 -5.414062 15.171875 -6.21875 C 15.171875 -6.8125 14.914062 -7.28125 14.40625 -7.625 C 13.894531 -7.976562 12.828125 -8.375 11.203125 -8.8125 L 9.109375 -9.34375 C 6.796875 -9.96875 5.097656 -10.84375 4.015625 -11.96875 C 2.929688 -13.101562 2.390625 -14.585938 2.390625 -16.421875 C 2.390625 -18.472656 3.164062 -20.082031 4.71875 -21.25 C 6.28125 -22.425781 8.503906 -23.015625 11.390625 -23.015625 C 13.066406 -23.015625 14.707031 -22.84375 16.3125 -22.5 C 17.925781 -22.15625 19.300781 -21.6875 20.4375 -21.09375 L 18.65625 -16.796875 C 17.675781 -17.316406 16.582031 -17.691406 15.375 -17.921875 C 14.164062 -18.148438 13.082031 -18.265625 12.125 -18.265625 C 11.019531 -18.265625 10.148438 -18.140625 9.515625 -17.890625 C 8.890625 -17.648438 8.578125 -17.222656 8.578125 -16.609375 C 8.578125 -16.046875 8.863281 -15.59375 9.4375 -15.25 C 10.019531 -14.914062 10.984375 -14.554688 12.328125 -14.171875 L 13.90625 -13.75 C 16.40625 -13.050781 18.242188 -12.132812 19.421875 -11 C 20.609375 -9.875 21.203125 -8.4375 21.203125 -6.6875 C 21.203125 -1.894531 17.90625 0.5 11.3125 0.5 Z M 11.3125 0.5 "/></g></g></g><g fill="#01ff09" fill-opacity="1"><g transform="translate(110.4237, 303.529684)"><g><path d="M 24.53125 -10.34375 L 24.53125 -9.8125 L 7.921875 -9.8125 C 8.222656 -8.394531 8.910156 -7.203125 9.984375 -6.234375 C 11.054688 -5.273438 12.425781 -4.796875 14.09375 -4.796875 C 15.457031 -4.796875 16.710938 -5.003906 17.859375 -5.421875 C 19.003906 -5.847656 19.976562 -6.34375 20.78125 -6.90625 L 23.453125 -2.15625 C 22.335938 -1.46875 20.992188 -0.835938 19.421875 -0.265625 C 17.859375 0.296875 15.992188 0.578125 13.828125 0.578125 C 11.359375 0.578125 9.203125 0.0820312 7.359375 -0.90625 C 5.515625 -1.894531 4.082031 -3.273438 3.0625 -5.046875 C 2.050781 -6.828125 1.546875 -8.890625 1.546875 -11.234375 L 1.546875 -11.28125 C 1.546875 -13.59375 2.019531 -15.628906 2.96875 -17.390625 C 3.925781 -19.160156 5.265625 -20.546875 6.984375 -21.546875 C 8.710938 -22.554688 10.75 -23.0625 13.09375 -23.0625 C 15.457031 -23.0625 17.492188 -22.550781 19.203125 -21.53125 C 20.921875 -20.507812 22.238281 -19.050781 23.15625 -17.15625 C 24.070312 -15.269531 24.53125 -13 24.53125 -10.34375 Z M 13.0625 -18.078125 C 11.71875 -18.078125 10.597656 -17.648438 9.703125 -16.796875 C 8.816406 -15.953125 8.234375 -14.882812 7.953125 -13.59375 L 18.265625 -13.59375 C 18.035156 -14.882812 17.484375 -15.953125 16.609375 -16.796875 C 15.734375 -17.648438 14.550781 -18.078125 13.0625 -18.078125 Z M 13.0625 -18.078125 "/></g></g></g><g fill="#01ff09" fill-opacity="1"><g transform="translate(135.052395, 303.529684)"><g><path d="M 8.234375 0 L 2.078125 0 L 2.078125 -21.90625 C 3.316406 -22.132812 4.585938 -22.332031 5.890625 -22.5 C 7.191406 -22.664062 8.414062 -22.800781 9.5625 -22.90625 C 10.707031 -23.007812 11.65625 -23.0625 12.40625 -23.0625 C 14.226562 -23.0625 15.914062 -22.804688 17.46875 -22.296875 C 19.03125 -21.796875 20.28125 -20.921875 21.21875 -19.671875 C 22.164062 -18.429688 22.640625 -16.703125 22.640625 -14.484375 L 22.640625 0 L 16.53125 0 L 16.53125 -13.75 C 16.53125 -15.144531 16.15625 -16.128906 15.40625 -16.703125 C 14.664062 -17.285156 13.570312 -17.578125 12.125 -17.578125 C 11.582031 -17.578125 10.976562 -17.539062 10.3125 -17.46875 C 9.644531 -17.40625 8.953125 -17.3125 8.234375 -17.1875 Z M 8.234375 0 "/></g></g></g><g fill="#01ff09" fill-opacity="1"><g transform="translate(158.329939, 303.529684)"><g><path d="M 12.25 -4.328125 L 17.609375 -22.171875 L 24.03125 -22.171875 L 16.453125 0 L 8.03125 0 L 0.46875 -22.171875 L 6.875 -22.171875 Z M 12.25 -4.328125 "/></g></g></g><g fill="#01ff09" fill-opacity="1"><g transform="translate(181.337271, 303.529684)"><g><path d="M 13.859375 0.625 C 11.472656 0.625 9.351562 0.109375 7.5 -0.921875 C 5.644531 -1.953125 4.191406 -3.363281 3.140625 -5.15625 C 2.097656 -6.945312 1.578125 -8.972656 1.578125 -11.234375 L 1.578125 -11.28125 C 1.578125 -13.539062 2.097656 -15.554688 3.140625 -17.328125 C 4.191406 -19.109375 5.632812 -20.507812 7.46875 -21.53125 C 9.3125 -22.550781 11.441406 -23.0625 13.859375 -23.0625 C 16.285156 -23.0625 18.425781 -22.550781 20.28125 -21.53125 C 22.132812 -20.507812 23.582031 -19.109375 24.625 -17.328125 C 25.664062 -15.554688 26.1875 -13.539062 26.1875 -11.28125 L 26.1875 -11.234375 C 26.1875 -8.972656 25.664062 -6.945312 24.625 -5.15625 C 23.582031 -3.363281 22.132812 -1.953125 20.28125 -0.921875 C 18.425781 0.109375 16.285156 0.625 13.859375 0.625 Z M 13.859375 -4.859375 C 15.097656 -4.859375 16.175781 -5.140625 17.09375 -5.703125 C 18.007812 -6.273438 18.722656 -7.046875 19.234375 -8.015625 C 19.742188 -8.984375 20 -10.054688 20 -11.234375 L 20 -11.3125 C 20 -12.5 19.75 -13.5625 19.25 -14.5 C 18.75 -15.4375 18.039062 -16.179688 17.125 -16.734375 C 16.21875 -17.296875 15.128906 -17.578125 13.859375 -17.578125 C 12.628906 -17.578125 11.554688 -17.296875 10.640625 -16.734375 C 9.722656 -16.179688 9.003906 -15.4375 8.484375 -14.5 C 7.972656 -13.5625 7.71875 -12.5 7.71875 -11.3125 L 7.71875 -11.234375 C 7.71875 -10.054688 7.972656 -8.984375 8.484375 -8.015625 C 9.003906 -7.046875 9.726562 -6.273438 10.65625 -5.703125 C 11.582031 -5.140625 12.648438 -4.859375 13.859375 -4.859375 Z M 13.859375 -4.859375 "/></g></g></g><g fill="#01ff09" fill-opacity="1"><g transform="translate(207.58733, 303.529684)"><g><path d="M 8.234375 0 L 2.078125 0 L 2.078125 -31.328125 L 8.234375 -31.328125 Z M 8.234375 0 "/></g></g></g><g fill="#01ff09" fill-opacity="1"><g transform="translate(216.426938, 303.529684)"><g><path d="M 12.25 -4.328125 L 17.609375 -22.171875 L 24.03125 -22.171875 L 16.453125 0 L 8.03125 0 L 0.46875 -22.171875 L 6.875 -22.171875 Z M 12.25 -4.328125 "/></g></g></g><g fill="#01ff09" fill-opacity="1"><g transform="translate(239.434269, 303.529684)"><g><path d="M 24.53125 -10.34375 L 24.53125 -9.8125 L 7.921875 -9.8125 C 8.222656 -8.394531 8.910156 -7.203125 9.984375 -6.234375 C 11.054688 -5.273438 12.425781 -4.796875 14.09375 -4.796875 C 15.457031 -4.796875 16.710938 -5.003906 17.859375 -5.421875 C 19.003906 -5.847656 19.976562 -6.34375 20.78125 -6.90625 L 23.453125 -2.15625 C 22.335938 -1.46875 20.992188 -0.835938 19.421875 -0.265625 C 17.859375 0.296875 15.992188 0.578125 13.828125 0.578125 C 11.359375 0.578125 9.203125 0.0820312 7.359375 -0.90625 C 5.515625 -1.894531 4.082031 -3.273438 3.0625 -5.046875 C 2.050781 -6.828125 1.546875 -8.890625 1.546875 -11.234375 L 1.546875 -11.28125 C 1.546875 -13.59375 2.019531 -15.628906 2.96875 -17.390625 C 3.925781 -19.160156 5.265625 -20.546875 6.984375 -21.546875 C 8.710938 -22.554688 10.75 -23.0625 13.09375 -23.0625 C 15.457031 -23.0625 17.492188 -22.550781 19.203125 -21.53125 C 20.921875 -20.507812 22.238281 -19.050781 23.15625 -17.15625 C 24.070312 -15.269531 24.53125 -13 24.53125 -10.34375 Z M 13.0625 -18.078125 C 11.71875 -18.078125 10.597656 -17.648438 9.703125 -16.796875 C 8.816406 -15.953125 8.234375 -14.882812 7.953125 -13.59375 L 18.265625 -13.59375 C 18.035156 -14.882812 17.484375 -15.953125 16.609375 -16.796875 C 15.734375 -17.648438 14.550781 -18.078125 13.0625 -18.078125 Z M 13.0625 -18.078125 "/></g></g></g><g fill="#01ff09" fill-opacity="1"><g transform="translate(264.062953, 303.529684)"><g><path d="M 13.859375 0.625 C 11.335938 0.625 9.15625 0.109375 7.3125 -0.921875 C 5.476562 -1.953125 4.0625 -3.351562 3.0625 -5.125 C 2.070312 -6.90625 1.578125 -8.929688 1.578125 -11.203125 L 1.578125 -11.28125 C 1.578125 -13.539062 2.050781 -15.554688 3 -17.328125 C 3.957031 -19.109375 5.335938 -20.507812 7.140625 -21.53125 C 8.941406 -22.550781 11.109375 -23.0625 13.640625 -23.0625 C 14.359375 -23.0625 15.070312 -23.003906 15.78125 -22.890625 C 16.488281 -22.773438 17.175781 -22.640625 17.84375 -22.484375 L 17.84375 -31.328125 L 23.953125 -31.328125 L 23.953125 -1.546875 C 22.378906 -0.773438 20.816406 -0.222656 19.265625 0.109375 C 17.722656 0.453125 15.921875 0.625 13.859375 0.625 Z M 13.859375 -4.859375 C 14.609375 -4.859375 15.3125 -4.90625 15.96875 -5 C 16.625 -5.09375 17.25 -5.21875 17.84375 -5.375 L 17.84375 -17 C 17.25 -17.125 16.601562 -17.25 15.90625 -17.375 C 15.21875 -17.507812 14.535156 -17.578125 13.859375 -17.578125 C 11.859375 -17.578125 10.332031 -16.96875 9.28125 -15.75 C 8.238281 -14.539062 7.71875 -13.050781 7.71875 -11.28125 L 7.71875 -11.203125 C 7.71875 -9.421875 8.238281 -7.914062 9.28125 -6.6875 C 10.332031 -5.46875 11.859375 -4.859375 13.859375 -4.859375 Z M 13.859375 -4.859375 "/></g></g></g><g fill="#01ff09" fill-opacity="1"><g transform="translate(288.653042, 303.529684)"><g><path d="M 13.859375 0.625 C 11.472656 0.625 9.351562 0.109375 7.5 -0.921875 C 5.644531 -1.953125 4.191406 -3.363281 3.140625 -5.15625 C 2.097656 -6.945312 1.578125 -8.972656 1.578125 -11.234375 L 1.578125 -11.28125 C 1.578125 -13.539062 2.097656 -15.554688 3.140625 -17.328125 C 4.191406 -19.109375 5.632812 -20.507812 7.46875 -21.53125 C 9.3125 -22.550781 11.441406 -23.0625 13.859375 -23.0625 C 16.285156 -23.0625 18.425781 -22.550781 20.28125 -21.53125 C 22.132812 -20.507812 23.582031 -19.109375 24.625 -17.328125 C 25.664062 -15.554688 26.1875 -13.539062 26.1875 -11.28125 L 26.1875 -11.234375 C 26.1875 -8.972656 25.664062 -6.945312 24.625 -5.15625 C 23.582031 -3.363281 22.132812 -1.953125 20.28125 -0.921875 C 18.425781 0.109375 16.285156 0.625 13.859375 0.625 Z M 13.859375 -4.859375 C 15.097656 -4.859375 16.175781 -5.140625 17.09375 -5.703125 C 18.007812 -6.273438 18.722656 -7.046875 19.234375 -8.015625 C 19.742188 -8.984375 20 -10.054688 20 -11.234375 L 20 -11.3125 C 20 -12.5 19.75 -13.5625 19.25 -14.5 C 18.75 -15.4375 18.039062 -16.179688 17.125 -16.734375 C 16.21875 -17.296875 15.128906 -17.578125 13.859375 -17.578125 C 12.628906 -17.578125 11.554688 -17.296875 10.640625 -16.734375 C 9.722656 -16.179688 9.003906 -15.4375 8.484375 -14.5 C 7.972656 -13.5625 7.71875 -12.5 7.71875 -11.3125 L 7.71875 -11.234375 C 7.71875 -10.054688 7.972656 -8.984375 8.484375 -8.015625 C 9.003906 -7.046875 9.726562 -6.273438 10.65625 -5.703125 C 11.582031 -5.140625 12.648438 -4.859375 13.859375 -4.859375 Z M 13.859375 -4.859375 "/></g></g></g><g fill="#01ff09" fill-opacity="1"><g transform="translate(314.903089, 303.529684)"><g><path d="M 8.234375 0 L 2.078125 0 L 2.078125 -21.328125 C 3.160156 -21.554688 4.273438 -21.734375 5.421875 -21.859375 C 6.566406 -21.992188 7.640625 -22.078125 8.640625 -22.109375 C 9.648438 -22.148438 10.488281 -22.171875 11.15625 -22.171875 L 15.484375 -22.171875 L 15.484375 -16.53125 L 12.171875 -16.53125 C 11.859375 -16.53125 11.414062 -16.507812 10.84375 -16.46875 C 10.28125 -16.4375 9.75 -16.398438 9.25 -16.359375 C 8.75 -16.316406 8.410156 -16.269531 8.234375 -16.21875 Z M 8.234375 0 "/></g></g></g></svg>